<svg width="1920" height="609" viewBox="0 0 1920 609" fill="none" xmlns="http://www.w3.org/2000/svg">
<g clip-path="url(#clip0_715_568)">
<g filter="url(#filter0_f_715_568)">
<path d="M676.5 -53.9374C676.5 81.0963 1188.65 109 1055 109C921.347 109 197 197.596 197 62.5626C197 -72.471 305.347 -181.937 439 -181.937C572.653 -181.937 676.5 -188.971 676.5 -53.9374Z" fill="#F88AB7"/>
</g>
<g filter="url(#filter1_f_715_568)">
<path d="M262 221.5C262 375.864 244.973 485 34 485C-176.973 485 -348 359.864 -348 205.5C-348 51.1364 -176.973 -74 34 -74C244.973 -74 262 67.1364 262 221.5Z" fill="#AAD7FA"/>
</g>
<g filter="url(#filter2_f_715_568)">
<path d="M1706 564.5C1706 718.864 1688.97 828 1478 828C1267.03 828 1096 702.864 1096 548.5C1096 394.136 1267.03 269 1478 269C1688.97 269 1706 410.136 1706 564.5Z" fill="#9CB4FF"/>
</g>
<g filter="url(#filter3_f_715_568)">
<ellipse cx="1817.5" cy="175" rx="349.5" ry="310" fill="#D7F8FF"/>
</g>
<g filter="url(#filter4_f_715_568)">
<ellipse cx="262.5" cy="133" rx="175.5" ry="155" fill="url(#paint0_linear_715_568)"/>
</g>
<g filter="url(#filter5_f_715_568)">
<path d="M2222 644C2222 748.658 1820.26 724.5 1714.5 724.5C1608.74 724.5 1523 639.658 1523 535C1523 430.342 1657.74 321 1763.5 321C1869.26 321 2222 539.342 2222 644Z" fill="#E1E4FE"/>
</g>
</g>
<defs>
<filter id="filter0_f_715_568" x="-203" y="-582" width="1680.25" height="1119.53" filterUnits="userSpaceOnUse" color-interpolation-filters="sRGB">
<feFlood flood-opacity="0" result="BackgroundImageFix"/>
<feBlend mode="normal" in="SourceGraphic" in2="BackgroundImageFix" result="shape"/>
<feGaussianBlur stdDeviation="200" result="effect1_foregroundBlur_715_568"/>
</filter>
<filter id="filter1_f_715_568" x="-548" y="-274" width="1010" height="959" filterUnits="userSpaceOnUse" color-interpolation-filters="sRGB">
<feFlood flood-opacity="0" result="BackgroundImageFix"/>
<feBlend mode="normal" in="SourceGraphic" in2="BackgroundImageFix" result="shape"/>
<feGaussianBlur stdDeviation="100" result="effect1_foregroundBlur_715_568"/>
</filter>
<filter id="filter2_f_715_568" x="696" y="-131" width="1410" height="1359" filterUnits="userSpaceOnUse" color-interpolation-filters="sRGB">
<feFlood flood-opacity="0" result="BackgroundImageFix"/>
<feBlend mode="normal" in="SourceGraphic" in2="BackgroundImageFix" result="shape"/>
<feGaussianBlur stdDeviation="200" result="effect1_foregroundBlur_715_568"/>
</filter>
<filter id="filter3_f_715_568" x="1068" y="-535" width="1499" height="1420" filterUnits="userSpaceOnUse" color-interpolation-filters="sRGB">
<feFlood flood-opacity="0" result="BackgroundImageFix"/>
<feBlend mode="normal" in="SourceGraphic" in2="BackgroundImageFix" result="shape"/>
<feGaussianBlur stdDeviation="200" result="effect1_foregroundBlur_715_568"/>
</filter>
<filter id="filter4_f_715_568" x="-213" y="-322" width="951" height="910" filterUnits="userSpaceOnUse" color-interpolation-filters="sRGB">
<feFlood flood-opacity="0" result="BackgroundImageFix"/>
<feBlend mode="normal" in="SourceGraphic" in2="BackgroundImageFix" result="shape"/>
<feGaussianBlur stdDeviation="150" result="effect1_foregroundBlur_715_568"/>
</filter>
<filter id="filter5_f_715_568" x="1323" y="121" width="1099" height="805.91" filterUnits="userSpaceOnUse" color-interpolation-filters="sRGB">
<feFlood flood-opacity="0" result="BackgroundImageFix"/>
<feBlend mode="normal" in="SourceGraphic" in2="BackgroundImageFix" result="shape"/>
<feGaussianBlur stdDeviation="100" result="effect1_foregroundBlur_715_568"/>
</filter>
<linearGradient id="paint0_linear_715_568" x1="262.5" y1="-22" x2="503" y2="198.5" gradientUnits="userSpaceOnUse">
<stop stop-color="#978CFF"/>
<stop offset="1" stop-color="white"/>
</linearGradient>
<clipPath id="clip0_715_568">
<rect width="1920" height="609" fill="white"/>
</clipPath>
</defs>
</svg>
