<svg width="487" height="487" viewBox="0 0 487 487" fill="none" xmlns="http://www.w3.org/2000/svg">
<path d="M406.971 25.0327L80.0288 0C36.0319 0 0 36.0319 0 80.0288V406.971C0 451.347 36.0319 487 80.0288 487L406.971 461.967C451.727 459.692 487 425.935 487 381.938V105.441C487 61.0646 452.865 27.6877 406.971 25.0327Z" fill="url(#paint0_linear_1049_233)"/>
<path d="M380.419 261.858C380.419 271.623 372.501 279.539 362.734 279.539H200.919C191.152 279.539 183.234 287.455 183.234 297.22V337.763C183.234 347.507 191.078 355.363 200.825 355.333C234.656 355.23 330.573 337.375 355.672 337.71C382.352 338.067 400.571 366.252 406.617 391.816C408.865 401.319 400.898 409.319 391.131 409.319L118.685 427C108.918 427 101 419.084 101 409.319V244H380.419V261.858Z" fill="url(#paint1_linear_1049_233)"/>
<path d="M380.419 226.142C380.419 216.377 372.501 208.461 362.734 208.461H200.919C191.152 208.461 183.234 200.545 183.234 190.78V150.237C183.234 140.493 191.078 132.637 200.825 132.667C234.656 132.77 315.087 150.573 340.186 150.237C366.866 149.881 385.085 121.695 391.131 96.131C393.378 86.628 385.412 78.6285 375.645 78.6285L118.685 61C108.918 61 101 68.9161 101 78.6812V244H380.419V226.142Z" fill="url(#paint2_linear_1049_233)"/>
<defs>
<linearGradient id="paint0_linear_1049_233" x1="243.5" y1="0" x2="243.5" y2="487" gradientUnits="userSpaceOnUse">
<stop stop-color="#330B59"/>
<stop offset="1" stop-color="#19002E"/>
</linearGradient>
<linearGradient id="paint1_linear_1049_233" x1="22.4723" y1="484.809" x2="413.185" y2="76.0179" gradientUnits="userSpaceOnUse">
<stop offset="0.22705" stop-color="#FFC7F2"/>
<stop offset="1" stop-color="#C850F9"/>
</linearGradient>
<linearGradient id="paint2_linear_1049_233" x1="22.4723" y1="484.809" x2="413.185" y2="76.0179" gradientUnits="userSpaceOnUse">
<stop offset="0.22705" stop-color="#FFC7F2"/>
<stop offset="1" stop-color="#C850F9"/>
</linearGradient>
</defs>
</svg>
